<?xml version="1.0" encoding="utf-8"?>
<!-- Generator: Adobe Illustrator 16.0.0, SVG Export Plug-In . SVG Version: 6.00 Build 0)  -->
<!DOCTYPE svg PUBLIC "-//W3C//DTD SVG 1.1//EN" "http://www.w3.org/Graphics/SVG/1.1/DTD/svg11.dtd">
<svg version="1.1" xmlns="http://www.w3.org/2000/svg" xmlns:xlink="http://www.w3.org/1999/xlink" x="0px" y="0px" width="800px"
	 height="600px" viewBox="0 0 800 600" enable-background="new 0 0 800 600" xml:space="preserve">
<g id="Bg__x2B__ON_STACKS__x2B__on_Stacks_xA0_Image_1_">
	
		<image overflow="visible" width="800" height="600" id="Bg__x2B__ON_STACKS__x2B__on_Stacks_xA0_Image" xlink:href="7A15679B00E26BBF.png" >
	</image>
</g>
<g id="Stacks_1_">
	<g id="Rectangle_5_copy_2">
		<g>
			<polygon fill="#00CE96" points="605.525,228.056 599.403,224.494 605.262,220.146 604.246,189.723 598.118,185.982 604,182.323 
				602.847,147.771 592.784,146.087 602.698,143.325 601.932,120.352 190.161,134.094 191.039,160.414 197.14,163.354 
				191.283,167.739 191.61,177.528 197.71,180.437 191.835,184.273 193.311,228.49 199.428,231.905 193.502,234.23 194.63,268.02 
				606.4,254.277 			"/>
		</g>
	</g>
	<g id="Shape_2_copy_7">
		<g>
			<path fill="#00B584" d="M208.989,158.329c19.729,6.131,377.983-6.954,377.864-9.236
				C570.512,142.877,208.989,158.329,208.989,158.329z"/>
		</g>
	</g>
	<g id="Shape_2_copy_7_1_">
		<g>
			<path fill="#00B584" d="M209.723,180.316c20.555,6.104,393.974-7.487,393.853-9.77
				C586.554,164.354,209.723,180.316,209.723,180.316z"/>
		</g>
	</g>
	<g id="Shape_2_copy_7_2_">
		<g>
			<path fill="#00B584" d="M211.058,220.294c20.555,6.104,393.974-7.486,393.853-9.77
				C587.888,204.331,211.058,220.294,211.058,220.294z"/>
		</g>
	</g>
	<g id="Shape_2_copy_7_3_">
		<g>
			<path fill="#00B584" d="M190.599,207.129c21.728,5.65,413.805-16.147,413.629-18.428
				C586.21,182.884,190.599,207.129,190.599,207.129z"/>
		</g>
	</g>
	<g id="Shape_2_copy_7_4_">
		<g>
			<path fill="#00B584" d="M191.933,247.106c21.728,5.65,413.805-16.147,413.629-18.427
				C587.545,222.861,191.933,247.106,191.933,247.106z"/>
		</g>
	</g>
	<g id="Rectangle_6_copy_4" opacity="0.2">
		<g>
			
				<rect x="346.298" y="128.186" transform="matrix(0.9994 -0.0334 0.0334 0.9994 -6.3062 12.3945)" fill="#009C72" width="44" height="134"/>
		</g>
	</g>
	<g id="Rectangle_6_copy_4_1_" opacity="0.3294">
		<g>
			
				<rect x="406.264" y="126.185" transform="matrix(0.9994 -0.0334 0.0334 0.9994 -6.206 14.3937)" fill="#009C72" width="44" height="133.999"/>
		</g>
	</g>
	<g id="Rectangle_6_copy_4_2_">
		<g>
			
				<rect x="354.281" y="125.185" transform="matrix(0.9994 -0.0334 0.0334 0.9994 -6.2561 13.3941)" fill="#EFF4E7" width="88" height="138"/>
		</g>
	</g>
	<g id="_x24__copy_2_xA0_Image_1_">
		
			<image overflow="visible" width="51" height="79" id="_x24__copy_2_xA0_Image" xlink:href="7A15679B00E26BBD.png"  transform="matrix(1 0 0 1 373 159)">
		</image>
	</g>
</g>
</svg>
