<?xml version="1.0" encoding="utf-8"?>
<!-- Generator: Adobe Illustrator 16.0.0, SVG Export Plug-In . SVG Version: 6.00 Build 0)  -->
<!DOCTYPE svg PUBLIC "-//W3C//DTD SVG 1.1//EN" "http://www.w3.org/Graphics/SVG/1.1/DTD/svg11.dtd">
<svg version="1.1" id="Layer_1" xmlns="http://www.w3.org/2000/svg" xmlns:xlink="http://www.w3.org/1999/xlink" x="0px" y="0px"
	 width="1500px" height="500px" viewBox="0 0 1500 500" enable-background="new 0 0 1500 500" xml:space="preserve">
<path fill="#448AFF" stroke="#448AFF" stroke-width="70" stroke-miterlimit="10" d="M216.263,328.01"/>
<path id="path10" inkscape:connector-curvature="0" fill="#448AFF" stroke="#448AFF" stroke-miterlimit="10" d="M184.312,218.193
	c10.242,27.018,80.79,58.368,123.156,65.26c12.927,2.056,11.714,13.464-1.772,18.056c-87.384,30.325-202.462-18.659-211.458-39.805
	C85.272,240.47,137.099,125.899,221.8,88.403c12.994-5.761,21.664,1.78,13.656,12.069c-26.327,33.911-62.284,87.424-53.558,111.874"
	/>
<path fill="none" stroke="#448AFF" stroke-width="70" stroke-miterlimit="10" d="M293.315,185.136
	C650.829,106.524,1380,158.746,1380,279.906c0,99.576-238.73,101.76-598.861,101.76"/>
<path fill="#448AFF" stroke="#448AFF" stroke-miterlimit="10" d="M783.17,416.354c-39.236,0.547-71.36-14.537-71.754-33.688
	c-0.391-19.152,31.097-35.121,70.334-35.668"/>
<path fill="#448AFF" stroke="#448AFF" stroke-miterlimit="10" d="M302.239,218.837c-38.236,8.826-72.725,0.845-77.036-17.826
	c-4.311-18.671,23.191-40.964,61.427-49.791"/>
</svg>
